<svg width="40" height="42" viewBox="0 0 40 42" fill="none" xmlns="http://www.w3.org/2000/svg">
<path d="M29.5855 0.333008V3.23017C26.5868 1.39541 23.176 0.425647 19.7014 0.419922C17.114 0.377305 14.5454 0.886714 12.1527 1.91702C9.75998 2.94732 7.59334 4.47687 5.78519 6.41221C3.91804 8.29366 2.44113 10.5566 1.44632 13.0603C0.451501 15.564 -0.0399475 18.2549 0.0025373 20.9656C-0.0382579 23.6804 0.453848 26.3751 1.44845 28.8832C2.44306 31.3914 3.91903 33.6596 5.78519 35.548C7.58635 37.4966 9.75055 39.0384 12.1441 40.0782C14.5377 41.118 17.1097 41.6337 19.7014 41.5934C23.3394 41.592 26.9037 40.5211 29.9874 38.5031C30.3955 39.3945 31.0217 40.1574 31.8025 40.7146C32.5905 41.2939 33.532 41.6012 34.4952 41.5934H39.428V0.333008H29.5855ZM23.2301 14.8526C23.4703 13.1095 24.8005 11.9554 26.2 12.3224C27.5995 12.6894 28.5371 14.3504 28.2969 16.0887C28.0567 17.827 26.7265 18.9859 25.3271 18.6189C23.9276 18.2519 22.99 16.5909 23.2301 14.8526ZM17.5445 8.97619C18.8008 8.08773 20.519 8.67682 21.3827 10.2896C22.2464 11.9023 21.9323 13.94 20.676 14.8285C19.4197 15.7169 17.7061 15.1327 16.8424 13.5151C15.9787 11.8975 16.2928 9.89363 17.5445 8.97619ZM11.1198 11.8734C12.3761 10.9849 14.0943 11.5691 14.958 13.1867C15.8217 14.8043 15.5076 16.8371 14.2513 17.7256C12.995 18.6141 11.2815 18.0298 10.4178 16.4122C9.55408 14.7947 9.86815 12.7908 11.1198 11.8927V11.8734ZM12.8426 24.2684C12.1267 25.5721 10.427 25.8135 9.04602 24.8092C7.66502 23.8048 7.12924 21.912 7.84515 20.6324C8.56105 19.3528 10.2607 19.0873 11.6417 20.0916C13.0227 21.096 13.5631 22.9839 12.8426 24.2877V24.2684ZM28.2599 27.6484C26.5233 29.039 23.9738 27.4359 21.8676 28.3727C19.7338 29.2273 18.9578 32.2355 16.787 32.4915C14.6162 32.7474 12.9535 30.28 14.9395 25.7894C16.2328 22.7667 15.8725 20.1785 18.2604 19.0969C20.6945 18.1312 22.1586 20.2703 25.1562 21.5112C29.5578 23.2978 29.9966 26.2819 28.2599 27.6677V27.6484Z" fill="#3772FF"/>
</svg>
